<?xml version="1.0" standalone="no"?><!DOCTYPE svg PUBLIC "-//W3C//DTD SVG 1.1//EN" "http://www.w3.org/Graphics/SVG/1.1/DTD/svg11.dtd"><svg t="1679397724790" class="icon" viewBox="0 0 1024 1024" version="1.1" xmlns="http://www.w3.org/2000/svg" p-id="3134" xmlns:xlink="http://www.w3.org/1999/xlink" width="200" height="200"><path d="M38.527 144.759l115.641 108.477s19.44 12.279 40.93 0c21.49-12.28 76.75-71.636 76.75-71.636s7.159-12.28 0-24.561c-7.16-12.28-115.072-111.545-115.072-111.545h124.282l113.59 112.571s24.686 23.595-1.277 48.851c-10.829 10.535-43.688 42.668-43.688 42.668s-4.029 8.634 7.741 18.612c4.419 3.742 411.766 390.281 411.766 390.281s31.467 31.144 68.564 0c12.851-10.786 35.048-14.715 60.375 4.551 8.509 6.47 98.241 89.594 98.241 89.594v105.406l-105.4-91.082s-23.54-23.407-40.936-7.159c-11.116 10.38-77.774 82.891-77.774 82.891s-14.583 13.683-2.046 31.72C776.428 883.33 870.5 973.62 870.5 973.62l-95.17 5.157-114.609-95.207s-24.31-31.048 4.089-62.425c12.771-14.115 28.015-43.839 11.261-64.471-4.132-5.085-418.522-410.326-418.522-410.326s-11.285-16.627-22.282-7.669c-9.042 7.37-38.945 30.065-38.945 30.065s-20.153 18.288-40.108 0.089c-11.542-10.522-117.687-116.66-117.687-116.66V144.759" fill="" p-id="3135"></path></svg>